<?xml version="1.0" standalone="no"?>
<!DOCTYPE svg PUBLIC "-//W3C//DTD SVG 20010904//EN"
 "http://www.w3.org/TR/2001/REC-SVG-20010904/DTD/svg10.dtd">
<svg version="1.0" xmlns="http://www.w3.org/2000/svg"
 width="576.000000pt" height="595.000000pt" viewBox="0 0 576.000000 595.000000"
 preserveAspectRatio="xMidYMid meet">

<g transform="translate(0.000000,595.000000) scale(0.100000,-0.100000)"
fill="#000000" stroke="none">
<path d="M2728 5936 c-20 -11 -48 -13 -102 -9 -58 5 -81 2 -99 -10 -17 -11
-45 -15 -98 -14 -63 2 -79 -1 -106 -21 -22 -16 -40 -21 -54 -17 -34 11 -107
-5 -136 -29 -22 -18 -44 -24 -95 -28 -57 -3 -72 -8 -96 -31 -17 -17 -39 -27
-58 -27 -51 0 -102 -20 -131 -50 -19 -20 -38 -30 -58 -30 -43 -1 -110 -34
-130 -64 -10 -14 -26 -26 -37 -26 -38 0 -119 -42 -133 -70 -10 -19 -27 -31
-60 -40 -54 -15 -90 -41 -110 -80 -8 -16 -25 -30 -42 -33 -42 -8 -96 -48 -113
-83 -10 -21 -34 -41 -70 -60 -42 -22 -60 -39 -75 -70 -14 -28 -35 -49 -68 -67
-46 -27 -87 -76 -87 -107 0 -9 -16 -24 -36 -35 -47 -25 -82 -68 -90 -110 -4
-21 -13 -37 -24 -40 -31 -10 -88 -82 -96 -120 -3 -20 -17 -44 -32 -55 -41 -33
-72 -82 -72 -115 0 -22 -10 -41 -35 -65 -41 -39 -65 -87 -65 -127 0 -17 -9
-38 -20 -48 -38 -34 -62 -85 -62 -127 1 -31 -6 -50 -29 -77 -34 -43 -51 -94
-43 -127 4 -15 -2 -34 -16 -54 -29 -40 -49 -109 -43 -143 3 -16 -5 -46 -22
-82 -23 -46 -27 -64 -22 -105 5 -37 1 -58 -15 -91 -17 -35 -19 -55 -15 -106 5
-45 2 -73 -9 -99 -11 -26 -14 -54 -10 -88 3 -28 6 -58 7 -66 1 -8 -5 -41 -12
-73 -11 -48 -11 -63 0 -90 7 -17 13 -39 12 -47 0 -8 -4 -45 -7 -82 -5 -52 -3
-73 9 -91 11 -17 13 -41 10 -93 -4 -55 -2 -78 13 -105 12 -23 18 -57 18 -106
1 -58 5 -77 24 -102 17 -24 22 -44 22 -94 0 -51 5 -71 23 -99 15 -20 26 -57
31 -92 7 -64 27 -110 51 -119 8 -4 15 -15 15 -26 0 -55 24 -127 51 -152 20
-19 32 -43 39 -78 12 -63 22 -83 57 -111 18 -14 32 -39 40 -72 15 -57 45 -104
71 -113 11 -3 25 -26 35 -59 16 -50 71 -116 97 -116 4 0 11 -13 15 -29 9 -43
58 -106 94 -121 17 -7 31 -18 31 -24 0 -7 14 -34 30 -60 22 -34 42 -52 70 -63
25 -10 40 -23 44 -39 9 -34 81 -104 109 -104 15 -1 30 -14 49 -45 28 -47 79
-85 113 -85 12 -1 31 -17 48 -41 30 -43 81 -79 113 -79 11 0 44 -22 72 -50 43
-41 58 -50 88 -50 27 0 41 -7 60 -29 29 -35 108 -75 130 -67 10 4 30 -6 52
-25 44 -39 98 -62 127 -55 16 4 39 -5 75 -29 43 -29 61 -35 105 -35 34 0 57
-5 65 -14 21 -26 96 -49 134 -42 25 5 45 1 73 -14 50 -27 96 -34 133 -22 16 6
32 7 34 3 3 -4 30 -16 60 -25 46 -15 62 -16 91 -6 29 10 44 9 82 -4 58 -20
102 -20 129 -2 18 13 26 13 60 1 51 -18 92 -18 126 -1 20 11 48 13 102 9 58
-5 81 -2 99 10 17 11 45 15 98 14 63 -2 79 1 106 21 22 16 40 21 54 17 34 -11
107 5 136 29 22 18 44 24 95 28 57 3 72 8 96 31 17 17 39 27 58 27 51 0 102
20 131 50 15 17 37 30 48 30 45 0 102 24 132 56 17 19 40 34 50 34 32 0 119
49 131 74 7 15 25 27 57 36 54 15 90 41 110 80 8 16 25 30 42 33 42 8 96 48
113 83 10 21 34 41 70 60 42 22 60 39 75 70 14 28 35 49 68 67 46 27 87 76 87
107 0 9 16 24 36 35 47 25 82 68 90 110 4 21 13 37 24 40 31 10 88 82 96 120
3 20 17 44 32 55 41 33 72 82 72 115 0 22 10 41 35 65 41 39 65 87 65 127 0
17 9 38 20 48 38 34 62 85 62 127 -1 31 6 50 29 77 34 43 51 94 43 127 -4 15
2 34 16 54 29 40 49 109 43 143 -3 16 5 46 22 82 23 46 27 64 22 105 -5 37 -1
58 15 91 17 35 19 55 15 106 -5 45 -2 73 9 99 11 26 14 54 10 88 -3 28 -6 58
-7 66 -1 8 5 41 12 73 11 48 11 63 0 90 -7 17 -13 39 -12 47 0 8 4 45 7 82 5
52 3 73 -9 91 -11 17 -13 41 -10 93 4 55 2 78 -13 105 -12 23 -18 57 -18 106
-1 58 -5 77 -23 102 -18 24 -23 44 -23 94 0 51 -5 71 -23 99 -15 20 -26 57
-31 92 -7 64 -27 110 -51 119 -8 4 -15 15 -15 26 0 55 -24 127 -51 152 -20 19
-32 43 -39 78 -12 63 -22 83 -57 111 -18 14 -32 39 -40 72 -15 57 -45 104 -71
113 -11 3 -25 26 -35 59 -16 50 -71 116 -97 116 -4 0 -11 13 -15 29 -9 43 -58
106 -94 121 -17 7 -31 18 -31 24 0 7 -14 34 -30 60 -22 34 -42 52 -70 63 -25
10 -40 23 -44 39 -9 34 -81 104 -108 104 -16 1 -31 14 -50 45 -28 47 -79 85
-113 85 -12 1 -31 17 -48 41 -30 43 -81 79 -113 79 -11 0 -44 23 -72 50 -43
41 -58 50 -88 50 -27 0 -41 7 -60 29 -29 35 -108 75 -130 67 -10 -4 -30 6 -52
25 -44 39 -98 62 -127 55 -16 -4 -39 5 -75 29 -43 29 -61 35 -105 35 -34 0
-57 5 -65 14 -21 26 -96 49 -134 42 -25 -5 -45 -1 -73 14 -50 27 -96 34 -133
22 -16 -6 -32 -7 -34 -3 -3 4 -30 16 -60 25 -46 15 -62 16 -91 6 -29 -10 -44
-9 -82 4 -58 20 -102 20 -129 2 -18 -13 -26 -13 -60 -1 -51 18 -92 18 -126 1z
m115 -37 c30 -8 49 -26 103 -97 62 -82 64 -87 44 -96 -14 -7 -37 -4 -73 7 -46
15 -59 26 -110 92 -75 98 -78 105 -36 105 19 0 51 -5 72 -11z m196 -5 c31 -12
50 -33 95 -100 31 -46 56 -88 56 -94 0 -17 -61 -11 -104 10 -32 15 -53 38 -93
103 -29 46 -53 86 -53 90 0 13 59 7 99 -9z m-394 -5 c39 -11 68 -37 143 -127
37 -46 34 -62 -13 -62 -60 0 -95 22 -167 103 -69 79 -71 82 -47 88 35 10 40
10 84 -2z m600 -18 c33 -19 138 -191 125 -204 -11 -12 -72 1 -107 23 -29 17
-123 171 -123 200 0 16 64 5 105 -19z m-683 -88 c88 -87 87 -99 -9 -91 -52 5
-57 8 -129 79 -41 40 -74 77 -74 81 0 12 33 17 85 13 46 -4 54 -9 127 -82z
m858 65 c40 -21 50 -33 92 -118 25 -52 47 -99 47 -104 2 -15 -68 2 -105 25
-28 17 -45 42 -80 117 -24 52 -44 96 -44 98 0 12 52 1 90 -18z m-1128 -31 c15
-7 58 -40 97 -74 65 -57 70 -63 52 -73 -11 -5 -42 -10 -70 -10 -47 0 -54 4
-135 71 -48 39 -86 73 -86 76 0 2 10 8 23 13 31 12 87 11 119 -3z m1306 -6
c52 -27 64 -44 104 -148 l36 -93 -28 0 c-43 0 -109 56 -130 110 -10 25 -27 69
-39 98 l-21 52 21 0 c11 0 36 -9 57 -19z m-1444 -75 c79 -54 122 -93 113 -102
-4 -4 -36 -10 -71 -12 l-64 -4 -86 65 c-52 39 -82 68 -76 72 54 33 118 27 184
-19z m1650 7 c38 -32 47 -47 73 -133 14 -47 28 -91 30 -97 14 -36 -92 12 -124
56 -12 17 -63 177 -63 198 0 16 55 0 84 -24z m-1856 -52 c20 -11 64 -38 97
-60 l59 -40 -37 -16 c-68 -28 -108 -21 -202 40 -47 30 -85 58 -85 61 0 10 66
33 98 34 18 0 49 -9 70 -19z m2028 -14 c17 -11 36 -28 42 -38 14 -23 63 -212
56 -218 -9 -9 -96 42 -111 66 -13 19 -62 190 -63 216 0 12 40 -2 76 -26z
m-1046 -7 c31 -6 56 -4 82 5 21 7 40 9 43 5 11 -17 111 -33 141 -23 22 8 37 6
64 -7 44 -22 99 -31 124 -21 13 5 34 -1 64 -17 28 -16 63 -26 95 -27 35 -1 67
-11 97 -28 26 -16 60 -27 82 -27 26 0 52 -10 83 -32 30 -21 58 -32 86 -34 28
-1 49 -9 67 -27 28 -27 90 -57 118 -57 9 0 36 -18 61 -40 27 -23 60 -42 82
-46 24 -4 46 -18 64 -41 31 -36 75 -63 104 -63 10 -1 30 -19 46 -41 28 -40 80
-79 107 -79 9 0 24 -16 35 -36 23 -42 69 -84 94 -84 10 0 23 -12 30 -26 20
-44 61 -91 89 -103 17 -7 38 -33 57 -68 19 -35 42 -62 61 -72 22 -11 36 -29
48 -63 10 -29 31 -59 55 -80 26 -22 43 -48 52 -78 8 -26 29 -60 51 -82 21 -21
38 -46 38 -55 1 -28 35 -95 64 -126 14 -16 26 -40 26 -55 1 -36 35 -111 55
-118 10 -4 15 -19 15 -45 0 -41 21 -102 44 -129 7 -8 16 -41 19 -73 3 -32 15
-74 26 -93 14 -23 21 -53 21 -87 0 -33 8 -68 20 -91 13 -27 19 -58 19 -107 0
-37 5 -78 12 -91 7 -13 14 -59 15 -103 2 -44 4 -96 4 -115 1 -19 1 -63 -1 -97
-2 -38 1 -67 8 -74 8 -8 8 -21 -3 -51 -16 -45 -18 -116 -5 -137 6 -9 1 -30
-11 -59 -15 -33 -19 -59 -16 -100 4 -41 0 -65 -14 -94 -12 -24 -19 -61 -19
-93 0 -36 -8 -68 -25 -101 -17 -33 -24 -62 -23 -89 2 -30 -5 -51 -25 -82 -17
-25 -31 -62 -34 -89 -3 -27 -19 -69 -38 -102 -20 -33 -34 -69 -34 -88 0 -18
-5 -36 -11 -40 -23 -14 -69 -99 -69 -129 0 -20 -7 -35 -20 -43 -26 -16 -80
-100 -80 -124 0 -10 -20 -37 -44 -61 -28 -26 -48 -57 -55 -82 -8 -28 -21 -47
-46 -63 -36 -23 -74 -75 -76 -102 0 -8 -21 -28 -47 -45 -32 -20 -53 -44 -67
-72 -11 -24 -23 -43 -28 -43 -21 0 -96 -63 -109 -90 -9 -21 -30 -38 -67 -56
-33 -17 -60 -39 -72 -59 -13 -21 -35 -38 -64 -50 -25 -9 -59 -33 -77 -54 -21
-24 -49 -42 -77 -50 -26 -8 -61 -29 -84 -52 -22 -21 -50 -39 -61 -39 -33 -1
-103 -36 -116 -59 -7 -15 -21 -21 -43 -21 -37 0 -106 -29 -126 -53 -7 -10 -28
-17 -45 -17 -47 0 -101 -18 -121 -40 -14 -15 -31 -20 -74 -20 -40 0 -66 -6
-91 -22 -27 -17 -47 -21 -88 -19 -37 2 -63 -3 -90 -16 -29 -16 -51 -19 -99
-15 -48 3 -69 0 -88 -12 -22 -15 -34 -16 -79 -6 -43 9 -62 8 -96 -4 -24 -8
-47 -13 -51 -10 -21 13 -105 21 -133 13 -22 -7 -49 -5 -94 7 -48 13 -71 15
-96 7 -25 -8 -40 -7 -62 5 -42 22 -100 33 -125 24 -16 -6 -34 -2 -67 16 -28
16 -62 26 -91 27 -28 0 -66 11 -98 28 -29 15 -68 27 -87 27 -24 0 -51 11 -81
32 -30 21 -58 32 -86 34 -28 1 -49 9 -67 27 -28 27 -90 57 -118 57 -9 0 -36
18 -61 40 -27 23 -60 42 -82 46 -24 4 -46 18 -64 41 -31 36 -75 63 -104 63
-10 1 -30 19 -46 41 -28 40 -80 79 -107 79 -9 0 -24 16 -35 36 -23 42 -69 84
-94 84 -10 0 -23 12 -30 26 -20 44 -61 91 -89 103 -17 7 -38 33 -57 68 -19 35
-42 62 -61 72 -22 11 -36 29 -48 63 -10 29 -31 59 -55 80 -26 22 -43 48 -52
78 -8 26 -29 60 -51 82 -21 21 -38 46 -38 56 -1 27 -35 94 -64 125 -14 16 -26
40 -26 55 -1 36 -35 111 -55 118 -10 4 -15 19 -15 45 0 41 -21 102 -44 129 -7
8 -16 41 -19 73 -3 32 -15 74 -26 93 -14 23 -21 53 -21 87 0 33 -8 68 -20 91
-13 27 -19 58 -19 107 0 37 -5 78 -12 91 -7 13 -14 59 -15 103 -2 44 -3 96 -4
115 -1 19 0 63 2 97 2 38 -2 67 -9 74 -8 8 -8 21 3 51 16 45 18 116 5 137 -6
9 -1 30 11 59 15 33 19 59 16 100 -4 41 0 65 14 94 12 24 19 61 19 93 0 36 8
68 25 100 14 29 24 66 24 92 0 30 8 56 26 83 15 23 29 60 32 87 3 30 16 64 35
91 16 24 31 62 34 85 3 23 14 51 23 62 34 38 60 90 60 120 0 20 7 35 20 43 26
16 80 100 80 124 0 10 20 37 44 61 28 26 48 57 55 82 8 28 21 47 46 63 36 23
74 75 76 102 0 8 21 29 47 45 32 20 53 44 67 73 11 23 23 42 28 42 21 0 96 63
109 90 9 21 30 38 67 56 33 17 60 39 72 59 13 21 35 38 64 50 25 9 59 33 77
54 21 24 49 42 77 50 26 8 61 29 84 52 22 21 50 39 61 39 33 1 103 36 116 59
7 15 21 21 43 21 37 0 106 29 126 53 7 10 28 17 45 17 47 0 101 18 121 40 14
15 31 20 74 20 40 0 66 6 91 22 27 17 47 21 88 19 37 -2 63 3 90 16 29 16 51
19 99 15 48 -3 69 0 88 12 22 15 34 16 79 6 41 -8 61 -8 92 3 21 8 46 13 54
10 8 -2 35 -8 60 -13z m-1097 -87 c48 -27 87 -51 87 -54 0 -14 -70 -39 -107
-39 -29 0 -65 14 -126 47 -48 26 -87 50 -87 54 0 14 67 39 106 39 30 0 63 -12
127 -47z m2323 11 c17 -12 36 -35 42 -51 16 -40 44 -204 37 -212 -11 -10 -79
35 -101 66 -12 19 -25 63 -33 114 -6 46 -15 92 -18 102 -4 16 -1 18 19 12 12
-4 37 -18 54 -31z m-2483 -99 c73 -35 77 -39 62 -55 -9 -10 -38 -24 -65 -30
-46 -11 -52 -10 -144 31 -53 23 -95 47 -93 53 2 6 19 19 38 29 48 26 108 17
202 -28z m2646 9 c46 -39 54 -59 66 -171 10 -96 10 -103 -7 -103 -27 0 -86 65
-97 107 -5 21 -12 73 -16 116 -8 88 1 96 54 51z m-2828 -97 c47 -17 87 -36 89
-42 5 -16 -72 -55 -110 -55 -43 0 -211 61 -207 75 5 16 88 55 117 55 14 0 64
-15 111 -33z m3019 -39 c23 -30 25 -44 28 -147 l4 -113 -32 18 c-18 11 -43 37
-56 60 -21 36 -24 53 -24 143 l0 102 28 -15 c15 -8 38 -29 52 -48z m-3191 -64
c124 -36 115 -32 100 -50 -19 -24 -85 -54 -116 -54 -15 0 -68 13 -116 28 l-88
27 28 26 c25 24 70 46 97 48 6 1 48 -10 95 -25z m3318 -26 c48 -51 53 -69 53
-182 0 -120 -6 -127 -57 -73 -48 49 -55 78 -47 189 3 54 10 98 13 98 4 0 21
-15 38 -32z m-3467 -93 c36 -8 76 -18 89 -21 l24 -5 -27 -28 c-46 -48 -93 -57
-189 -37 -127 27 -122 24 -100 48 29 33 76 58 108 58 17 0 59 -7 95 -15z
m3613 -32 c48 -51 56 -86 45 -200 -6 -57 -14 -103 -18 -103 -13 0 -60 56 -74
91 -13 30 -14 52 -6 120 6 46 10 92 10 102 0 24 12 21 43 -10z m-3754 -98 c51
-7 96 -16 99 -20 9 -9 -47 -62 -80 -76 -23 -9 -50 -9 -129 1 -55 7 -101 16
-104 20 -8 14 89 90 115 90 3 0 47 -7 99 -15z m3937 -119 c7 -40 -22 -226 -36
-226 -16 0 -59 61 -69 96 -9 31 7 166 26 224 7 24 71 -52 79 -94z m-3968 -31
c8 -8 -49 -65 -83 -82 -23 -13 -48 -14 -129 -9 -55 4 -102 9 -104 11 -7 7 26
47 60 71 31 24 38 24 142 19 60 -2 111 -7 114 -10z m4076 -77 l28 -57 -26
-107 c-14 -59 -27 -109 -30 -111 -8 -8 -54 62 -64 99 -8 29 -6 54 8 110 10 40
21 86 24 101 9 40 27 30 60 -35z m-4204 -70 c-1 -16 -26 -46 -64 -76 -26 -20
-40 -22 -138 -22 l-109 0 16 30 c8 16 32 41 52 55 34 23 47 25 140 25 76 0
103 -3 103 -12z m4318 -78 c12 -24 22 -56 22 -70 1 -37 -53 -210 -66 -210 -16
0 -54 74 -56 111 -2 43 52 221 66 216 6 -2 21 -23 34 -47z m-4428 -66 c0 -18
-39 -68 -70 -88 -29 -20 -53 -26 -138 -32 l-104 -7 16 30 c18 37 69 81 99 88
20 4 46 6 165 13 17 1 32 -1 32 -4z m4529 -85 c36 -58 35 -90 -4 -191 -20 -51
-40 -97 -45 -102 -11 -11 -40 34 -51 81 -8 32 -3 53 28 141 20 56 41 102 45
102 5 0 17 -14 27 -31z m-4639 -85 c0 -8 -19 -35 -42 -60 -42 -44 -45 -45
-142 -60 -54 -8 -101 -12 -105 -9 -9 10 32 77 61 99 17 12 59 25 105 32 110
17 123 16 123 -2z m4750 -124 c16 -56 12 -74 -29 -160 -22 -45 -42 -87 -45
-93 -9 -23 -44 32 -51 80 -6 43 -1 58 40 148 43 93 48 99 61 80 8 -10 19 -35
24 -55z m-4840 -25 c0 -3 -6 -20 -14 -38 -24 -57 -67 -87 -153 -108 -43 -10
-88 -18 -100 -19 -20 0 -21 2 -11 31 21 62 65 92 168 116 110 25 110 25 110
18z m4929 -200 c0 -29 -12 -62 -48 -125 -27 -47 -52 -84 -57 -84 -17 2 -34 50
-34 97 0 39 9 64 52 139 l52 92 18 -39 c9 -22 17 -58 17 -80z m-5032 -32 c-27
-51 -63 -74 -161 -103 -58 -17 -96 -24 -96 -17 0 19 40 94 59 111 10 9 60 29
112 44 86 26 94 27 97 11 2 -10 -3 -30 -11 -46z m5089 -78 c27 -66 19 -104
-42 -199 -31 -47 -59 -86 -63 -86 -15 0 -31 51 -31 95 0 37 10 60 58 135 31
49 58 90 60 90 2 0 10 -16 18 -35z m-5146 -55 c0 -31 -37 -98 -63 -114 -33
-22 -188 -79 -194 -72 -10 10 27 92 53 117 20 19 165 84 197 88 4 1 7 -8 7
-19z m5211 -149 c6 -22 9 -55 5 -73 -6 -33 -119 -198 -136 -198 -11 0 -20 38
-20 91 0 48 7 62 86 167 21 29 42 52 46 52 4 0 12 -18 19 -39z m-5274 -51
c-10 -76 -49 -109 -206 -177 l-34 -14 6 40 c8 66 40 99 141 147 50 24 93 43
95 44 2 0 1 -18 -2 -40z m5322 -186 c1 -55 -12 -78 -102 -179 l-45 -50 -12 30
c-7 17 -9 49 -5 77 6 39 18 59 78 128 79 91 85 91 86 -6z m-5359 14 c-1 -31
-33 -99 -56 -120 -22 -19 -165 -98 -178 -98 -13 0 3 71 25 110 14 25 44 48
102 81 95 54 107 57 107 27z m5392 -170 c10 -67 -9 -109 -85 -185 -39 -40 -75
-73 -78 -73 -14 0 -20 57 -10 100 8 34 25 59 83 117 40 40 75 73 79 73 4 0 9
-14 11 -32z m-5431 -10 c7 -79 -19 -120 -115 -183 -46 -32 -89 -54 -95 -51 -6
4 -8 21 -4 39 13 73 30 95 115 151 88 59 97 63 99 44z m5451 -180 c2 -13 0
-43 -4 -68 -7 -39 -17 -54 -85 -117 -43 -40 -82 -71 -88 -69 -14 5 -10 98 6
128 14 24 147 147 161 148 4 0 8 -10 10 -22z m-5469 -12 c6 -15 -9 -89 -24
-117 -9 -17 -161 -139 -173 -139 -13 0 -5 88 12 120 14 30 154 150 173 150 4
0 9 -6 12 -14z m5475 -220 c-6 -70 -22 -94 -114 -163 -81 -61 -99 -61 -87 2
12 66 32 93 109 153 44 34 83 61 88 61 5 1 6 -23 4 -53z m-5484 -13 c-1 -27
-8 -61 -15 -75 -14 -24 -147 -147 -161 -148 -11 0 -14 42 -6 90 7 39 17 54 85
117 43 40 83 71 88 69 6 -2 9 -25 9 -53z m11 -161 c13 -62 -9 -111 -87 -189
-40 -40 -75 -73 -79 -73 -12 0 -16 63 -7 104 7 31 26 58 81 114 39 39 75 72
78 72 4 0 10 -13 14 -28z m5469 9 c9 -13 -19 -109 -37 -129 -9 -10 -51 -40
-93 -67 -82 -52 -98 -50 -84 9 17 69 30 86 112 141 86 57 93 61 102 46z
m-5453 -198 c6 -15 7 -49 4 -75 -6 -39 -18 -59 -78 -128 -60 -69 -72 -79 -78
-64 -14 36 -9 118 9 145 20 29 123 149 129 149 2 0 8 -12 14 -27z m5434 -30
c-13 -74 -41 -107 -129 -154 -44 -24 -87 -45 -93 -47 -32 -8 4 106 43 139 22
19 165 99 178 99 4 0 5 -17 1 -37z m-5401 -155 c13 -52 6 -115 -18 -150 -47
-70 -100 -138 -108 -138 -14 0 -31 78 -24 112 6 33 119 198 136 198 4 0 10
-10 14 -22z m5349 -95 c-24 -46 -48 -63 -147 -108 l-79 -36 6 42 c8 63 49 104
147 149 l85 40 3 -26 c2 -14 -5 -41 -15 -61z m-5303 -99 c6 -14 10 -46 10 -72
-1 -40 -9 -60 -60 -137 l-59 -90 -16 37 c-28 69 -21 106 41 202 31 47 60 86
65 86 5 0 14 -12 19 -26z m5280 -26 c-1 -24 -38 -93 -61 -114 -13 -12 -55 -32
-94 -47 -38 -14 -78 -28 -87 -32 -25 -10 -24 24 1 74 26 50 37 58 138 97 101
38 103 38 103 22z m-5212 -216 c4 -56 2 -63 -49 -152 l-53 -94 -18 39 c-27 60
-23 109 13 174 70 124 70 124 87 107 9 -9 17 -39 20 -74z m5133 -26 c-30 -62
-46 -72 -154 -105 -93 -28 -97 -28 -97 -10 0 27 23 69 53 97 27 25 210 85 215
70 2 -4 -6 -28 -17 -52z m-5077 -88 c8 -13 17 -43 21 -68 6 -40 1 -57 -40
-145 -43 -93 -47 -99 -61 -80 -16 21 -34 79 -34 110 0 23 81 205 92 205 4 0
14 -10 22 -22z m5015 -76 c-5 -16 -22 -43 -37 -61 -24 -29 -40 -36 -132 -56
-57 -13 -106 -22 -108 -21 -8 9 28 74 56 100 30 28 138 62 204 65 25 1 26 -1
17 -27z m-4925 -110 c30 -60 28 -91 -10 -191 -21 -53 -39 -98 -41 -101 -9 -10
-43 43 -54 82 -9 35 -7 50 12 102 55 153 65 164 93 108z m4846 -54 c0 -22 -38
-76 -65 -94 -22 -14 -161 -43 -212 -44 -25 0 -12 32 30 76 40 43 46 46 127 58
112 18 120 18 120 4z m-4752 -117 c12 -21 23 -54 24 -72 2 -43 -52 -221 -66
-216 -18 5 -56 89 -56 122 0 25 23 107 55 193 8 21 21 13 43 -27z m4648 -80
c-19 -35 -70 -79 -99 -85 -12 -3 -61 -8 -109 -11 -95 -7 -99 -3 -58 50 44 57
81 69 228 74 l53 1 -15 -29z m-4518 -131 c7 -30 5 -59 -13 -135 -13 -53 -26
-99 -29 -102 -11 -11 -34 18 -56 69 l-22 50 22 92 c35 145 29 135 60 97 16
-18 32 -50 38 -71z m4407 -40 c-8 -16 -32 -41 -52 -55 -34 -23 -47 -25 -140
-25 -57 0 -103 3 -103 6 0 16 35 62 63 82 28 19 44 22 140 22 l108 0 -16 -30z
m-4321 -50 c41 -49 47 -90 30 -189 -9 -47 -18 -93 -20 -101 -8 -24 -72 52 -80
94 -7 40 22 226 36 226 5 0 20 -14 34 -30z m4214 -84 c8 -9 -25 -48 -61 -73
-36 -25 -40 -26 -144 -19 -58 3 -109 8 -111 11 -7 7 37 54 73 77 27 17 42 19
135 13 57 -3 106 -8 108 -9z m-4096 -53 c53 -58 59 -82 47 -195 -6 -57 -13
-105 -15 -107 -9 -9 -58 46 -74 84 -16 35 -17 52 -7 143 6 56 13 102 17 102 3
0 18 -12 32 -27z m3871 -84 c105 -15 105 -15 72 -49 -53 -56 -81 -62 -190 -46
-54 8 -100 17 -103 20 -7 8 27 45 63 67 35 22 59 23 158 8z m-3726 -61 c48
-50 55 -79 47 -190 -3 -54 -10 -98 -13 -98 -10 0 -67 62 -80 87 -6 12 -11 69
-11 127 0 120 6 127 57 74z m3591 -77 c46 -11 86 -21 88 -24 8 -8 -66 -67 -94
-74 -22 -5 -177 19 -220 35 -18 6 23 49 63 67 41 18 67 18 163 -4z m-3412 -87
c21 -36 24 -53 24 -143 l0 -102 -27 15 c-16 8 -39 29 -53 48 -23 30 -25 44
-28 147 l-4 113 32 -18 c18 -11 43 -37 56 -60z m3268 -42 l90 -28 -28 -26
c-15 -14 -46 -31 -67 -37 -35 -11 -51 -9 -127 14 -126 38 -116 33 -101 51 20
24 81 53 114 53 17 1 70 -12 119 -27z m-3140 -37 c40 -39 51 -75 61 -187 8
-89 -1 -97 -54 -52 -46 39 -54 59 -66 172 -10 95 -10 102 7 102 9 0 33 -16 52
-35z m2979 -77 c48 -18 86 -37 84 -43 -5 -16 -88 -55 -117 -55 -32 0 -196 62
-200 75 -5 15 79 55 115 55 16 0 69 -14 118 -32z m-2826 -17 c46 -33 58 -59
73 -161 6 -41 14 -83 17 -93 12 -44 -97 23 -115 71 -9 23 -42 184 -42 205 0
15 29 5 67 -22z m2651 -83 c51 -23 91 -47 89 -52 -2 -6 -19 -19 -38 -29 -48
-26 -108 -17 -202 28 -73 35 -77 39 -62 55 15 17 68 36 105 39 8 1 57 -18 108
-41z m-2473 -14 c18 -14 38 -37 44 -52 16 -41 53 -194 48 -199 -9 -8 -72 24
-98 51 -19 19 -33 52 -48 114 -12 48 -24 95 -28 106 -4 16 -1 18 22 12 15 -4
42 -18 60 -32z m2308 -81 c48 -26 87 -51 87 -54 0 -14 -70 -39 -108 -39 -28 0
-63 13 -125 48 -48 26 -87 50 -87 53 0 14 67 39 106 39 30 0 64 -12 127 -47z
m-2141 8 c43 -27 48 -35 78 -125 37 -113 37 -126 -5 -115 -57 16 -91 59 -121
155 -14 49 -29 95 -31 102 -9 21 31 13 79 -17z m1963 -86 c47 -30 85 -58 85
-61 0 -10 -70 -34 -100 -34 -35 0 -78 21 -165 79 l-59 40 34 15 c68 30 111 21
205 -39z m-1774 12 c36 -27 48 -46 80 -127 33 -86 35 -95 19 -98 -26 -4 -97
34 -115 61 -8 13 -30 62 -49 110 l-34 87 28 0 c17 0 46 -14 71 -33z m185 -48
c28 -17 45 -42 80 -117 24 -52 42 -97 40 -100 -9 -8 -71 8 -103 27 -23 14 -43
45 -77 117 -25 53 -46 99 -46 102 0 11 74 -9 106 -29z m1412 -33 c72 -56 81
-66 65 -74 -33 -18 -88 -24 -118 -12 -36 14 -175 117 -175 130 0 12 26 18 90
19 53 1 58 -2 138 -63z m-1223 -5 c38 -21 141 -199 121 -207 -20 -8 -90 13
-115 34 -26 21 -121 184 -114 195 7 12 72 -1 108 -22z m1030 -43 c52 -43 82
-75 77 -80 -16 -16 -88 -21 -123 -9 -19 6 -65 41 -104 76 -79 73 -78 85 12 85
50 0 55 -3 138 -72z m-851 22 c30 -15 53 -39 88 -92 65 -102 67 -108 29 -108
-68 0 -106 26 -165 116 -31 46 -56 88 -56 94 0 17 61 11 104 -10z m664 -63
c42 -42 73 -80 68 -84 -4 -4 -34 -8 -67 -8 l-59 1 -80 79 c-89 89 -89 98 3 92
58 -3 59 -4 135 -80z m-481 55 c33 -13 57 -35 103 -96 33 -43 60 -82 60 -87 0
-12 -57 -11 -103 2 -30 8 -49 26 -102 96 -48 63 -62 89 -53 95 19 12 48 9 95
-10z m185 8 c26 -8 56 -32 107 -89 39 -43 71 -81 71 -84 0 -12 -67 -16 -103
-6 -41 11 -69 36 -145 127 -29 35 -33 45 -21 53 18 11 46 11 91 -1z"/>
<path d="M2673 4928 c-28 -14 -46 -63 -33 -89 23 -43 76 -51 108 -16 27 28 28
58 5 85 -23 26 -52 33 -80 20z"/>
<path d="M2846 4921 c-26 -29 -18 -81 16 -100 59 -33 120 28 87 87 -19 35 -76
43 -103 13z"/>
<path d="M3036 4908 c-34 -48 -7 -108 48 -108 19 0 40 8 49 18 22 25 21 75 -1
95 -27 25 -78 22 -96 -5z"/>
<path d="M2483 4900 c-23 -10 -43 -39 -43 -65 0 -23 45 -65 70 -65 27 0 70 43
70 70 0 23 -42 70 -62 69 -7 0 -23 -4 -35 -9z"/>
<path d="M3230 4880 c-51 -51 10 -142 73 -108 30 15 37 27 37 65 0 56 -69 84
-110 43z"/>
<path d="M2286 4839 c-34 -27 -36 -81 -4 -103 72 -51 151 49 82 103 -15 12
-32 21 -39 21 -7 0 -24 -9 -39 -21z"/>
<path d="M3422 4834 c-16 -11 -22 -25 -22 -54 0 -65 65 -93 108 -47 29 30 28
62 -3 92 -28 29 -51 31 -83 9z"/>
<path d="M2115 4778 c-28 -16 -35 -28 -35 -64 0 -59 69 -86 110 -42 27 29 25
64 -5 93 -27 28 -40 30 -70 13z"/>
<path d="M3596 4754 c-40 -40 -11 -114 46 -114 56 0 86 60 52 108 -18 26 -74
30 -98 6z"/>
<path d="M1929 4682 c-45 -38 -16 -122 43 -122 25 0 68 44 68 70 0 26 -43 70
-68 70 -11 0 -30 -8 -43 -18z"/>
<path d="M3767 4662 c-22 -25 -21 -75 1 -95 43 -39 112 -8 112 50 0 53 -78 84
-113 45z"/>
<path d="M1761 4564 c-27 -35 -26 -59 4 -89 29 -30 58 -32 85 -5 31 31 30 75
-2 103 -29 25 -63 21 -87 -9z"/>
<path d="M3927 4552 c-22 -25 -21 -75 1 -95 43 -39 112 -8 112 50 0 53 -78 84
-113 45z"/>
<path d="M1633 4460 c-44 -18 -56 -77 -23 -110 42 -42 110 -14 110 46 0 35 -8
47 -37 63 -25 13 -21 12 -50 1z"/>
<path d="M4095 4438 c-27 -15 -35 -28 -35 -60 0 -35 32 -68 65 -68 32 0 65 33
65 65 0 27 -40 75 -62 75 -7 0 -22 -6 -33 -12z"/>
<path d="M1499 4318 c-16 -5 -32 -22 -39 -39 -11 -26 -10 -34 7 -57 29 -39 74
-41 102 -5 16 19 20 35 16 53 -12 48 -40 63 -86 48z"/>
<path d="M4210 4280 c-26 -26 -25 -60 0 -88 41 -43 113 -16 113 43 0 58 -72
86 -113 45z"/>
<path d="M1351 4144 c-27 -35 -26 -59 4 -89 27 -28 37 -30 68 -14 30 16 37 28
37 66 0 60 -72 84 -109 37z"/>
<path d="M4335 4125 c-14 -13 -25 -33 -25 -45 0 -26 43 -70 67 -70 10 0 29 7
41 16 45 31 16 124 -38 124 -12 0 -32 -11 -45 -25z"/>
<path d="M1256 3989 c-50 -39 -26 -119 37 -119 70 0 87 105 22 130 -33 13 -28
14 -59 -11z"/>
<path d="M4437 3962 c-37 -40 -7 -122 43 -122 26 0 70 43 70 68 0 57 -78 93
-113 54z"/>
<path d="M1162 3810 c-14 -13 -22 -33 -22 -54 0 -64 70 -90 109 -40 27 35 27
65 -2 92 -29 27 -57 28 -85 2z"/>
<path d="M4534 3792 c-26 -17 -36 -53 -23 -84 20 -49 83 -57 111 -14 14 21 8
73 -10 89 -19 18 -59 22 -78 9z"/>
<path d="M1086 3618 c-17 -24 -21 -65 -8 -84 9 -13 46 -34 62 -34 20 0 60 49
60 75 0 57 -82 89 -114 43z"/>
<path d="M4595 3595 c-46 -45 -19 -115 43 -115 62 0 85 80 36 119 -34 27 -50
26 -79 -4z"/>
<path d="M1042 3434 c-45 -31 -16 -124 38 -124 26 0 70 43 70 68 0 29 -38 72
-64 72 -12 0 -32 -7 -44 -16z"/>
<path d="M4636 3398 c-24 -34 -20 -73 10 -97 15 -12 33 -21 41 -21 23 0 63 47
63 75 0 57 -82 89 -114 43z"/>
<path d="M1008 3233 c-35 -42 -27 -91 18 -112 68 -30 121 60 68 114 -21 20
-67 19 -86 -2z"/>
<path d="M4690 3218 c-31 -11 -40 -25 -40 -64 0 -38 27 -64 67 -64 34 0 48 13
57 50 13 52 -35 96 -84 78z"/>
<path d="M998 3033 c-26 -31 -28 -40 -17 -72 19 -53 98 -56 117 -4 10 30 0 72
-21 85 -21 14 -63 8 -79 -9z"/>
<path d="M4675 3020 c-20 -22 -23 -74 -5 -95 43 -52 135 2 115 66 -16 50 -77
66 -110 29z"/>
<path d="M1022 2850 c-30 -13 -44 -52 -31 -87 12 -33 26 -43 60 -43 59 0 81
81 33 119 -30 23 -30 23 -62 11z"/>
<path d="M4668 2823 c-24 -28 -27 -47 -12 -81 11 -27 18 -32 46 -32 39 0 51 7
67 38 32 61 -56 126 -101 75z"/>
<path d="M1035 2635 c-30 -30 -31 -54 -4 -89 40 -51 109 -24 109 42 0 37 -30
72 -60 72 -12 0 -32 -11 -45 -25z"/>
<path d="M4639 2632 c-46 -38 -17 -122 42 -122 61 0 86 81 37 123 -26 22 -50
22 -79 -1z"/>
<path d="M1100 2457 c-58 -29 -45 -119 19 -125 68 -7 99 74 45 117 -31 24 -31
25 -64 8z"/>
<path d="M4586 2435 c-24 -25 -28 -52 -11 -85 12 -24 22 -30 48 -30 38 0 50 7
66 38 22 42 -10 92 -59 92 -16 0 -35 -7 -44 -15z"/>
<path d="M1150 2258 c-59 -63 29 -159 90 -98 27 27 26 71 -3 98 -30 28 -61 28
-87 0z"/>
<path d="M4532 2263 c-19 -8 -43 -60 -35 -80 20 -58 77 -71 112 -27 27 35 26
59 -4 89 -23 24 -45 29 -73 18z"/>
<path d="M1237 2082 c-37 -40 -7 -122 43 -122 26 0 70 43 70 68 0 57 -78 93
-113 54z"/>
<path d="M4430 2070 c-39 -39 -12 -120 40 -120 28 0 70 44 70 73 0 29 -39 67
-68 67 -12 0 -31 -9 -42 -20z"/>
<path d="M1340 1910 c-41 -41 -13 -110 44 -110 40 0 66 26 66 67 0 57 -69 84
-110 43z"/>
<path d="M4320 1900 c-41 -41 -13 -110 44 -110 40 0 66 26 66 67 0 57 -69 84
-110 43z"/>
<path d="M1466 1759 c-31 -25 -33 -57 -5 -93 39 -50 109 -24 109 41 0 32 -35
73 -62 73 -8 0 -27 -9 -42 -21z"/>
<path d="M4202 1747 c-27 -29 -28 -71 -2 -97 27 -27 62 -25 88 3 27 29 28 71
2 97 -27 27 -62 25 -88 -3z"/>
<path d="M1596 1614 c-27 -26 -17 -85 16 -103 59 -33 120 28 87 87 -18 33 -77
43 -103 16z"/>
<path d="M4065 1605 c-30 -30 -31 -54 -4 -89 24 -31 57 -34 89 -8 45 37 16
122 -42 122 -10 0 -30 -11 -43 -25z"/>
<path d="M1752 1494 c-15 -10 -22 -25 -22 -48 0 -64 55 -94 103 -56 32 26 35
58 6 94 -23 29 -54 33 -87 10z"/>
<path d="M3910 1478 c-11 -12 -20 -31 -20 -43 0 -64 79 -89 119 -38 51 64 -43
141 -99 81z"/>
<path d="M1912 1384 c-32 -22 -30 -76 4 -103 15 -12 32 -21 39 -21 7 0 24 9
39 21 33 26 34 68 3 97 -27 26 -54 28 -85 6z"/>
<path d="M3750 1370 c-41 -41 -13 -110 44 -110 40 0 66 26 66 67 0 57 -69 84
-110 43z"/>
<path d="M2080 1290 c-20 -20 -26 -65 -12 -86 10 -15 47 -34 66 -34 25 0 56
38 56 68 0 34 -36 72 -68 72 -12 0 -31 -9 -42 -20z"/>
<path d="M3580 1280 c-43 -43 -14 -110 48 -110 36 0 62 30 62 71 0 54 -70 79
-110 39z"/>
<path d="M2290 1232 c-50 -16 -65 -72 -30 -110 40 -43 110 -14 110 46 0 40
-44 76 -80 64z"/>
<path d="M3397 1212 c-22 -25 -21 -75 1 -95 25 -22 75 -21 95 1 22 25 21 75
-1 95 -25 22 -75 21 -95 -1z"/>
<path d="M2446 1165 c-26 -27 -29 -56 -9 -84 23 -30 69 -39 98 -18 26 20 26
84 0 103 -25 18 -70 18 -89 -1z"/>
<path d="M3210 1160 c-41 -41 -13 -110 45 -110 42 0 65 22 65 64 0 60 -68 88
-110 46z"/>
<path d="M2635 1130 c-39 -43 -9 -110 51 -110 57 0 85 69 44 110 -26 26 -72
26 -95 0z"/>
<path d="M3020 1130 c-41 -41 -13 -110 44 -110 41 0 66 26 66 68 0 56 -70 82
-110 42z"/>
<path d="M2832 1124 c-29 -20 -30 -74 -2 -99 42 -38 110 -9 110 47 0 56 -60
86 -108 52z"/>
</g>
</svg>
