<?xml version="1.0" standalone="no"?>
<!DOCTYPE svg PUBLIC "-//W3C//DTD SVG 20010904//EN"
 "http://www.w3.org/TR/2001/REC-SVG-20010904/DTD/svg10.dtd">
<svg version="1.0" xmlns="http://www.w3.org/2000/svg"
 width="500.000000pt" height="500.000000pt" viewBox="0 0 500.000000 500.000000"
 preserveAspectRatio="xMidYMid meet">

<g transform="translate(0.000000,500.000000) scale(0.100000,-0.100000)"
fill="#000000" stroke="none">
<path d="M2640 4111 c0 -14 -29 -221 -35 -248 -4 -16 -1 -23 10 -23 8 0 15 4
15 9 0 5 17 0 39 -12 32 -18 43 -19 64 -10 38 17 59 56 60 109 0 40 -4 51 -28
72 -28 24 -50 25 -99 6 -15 -6 -17 -3 -13 12 12 41 12 87 0 91 -7 3 -13 0 -13
-6z m104 -122 c28 -22 33 -50 15 -96 -13 -34 -26 -43 -61 -43 -58 0 -78 101
-27 143 27 22 41 22 73 -4z"/>
<path d="M2300 3990 c0 -60 -3 -110 -8 -110 -4 0 -29 43 -55 95 -26 53 -53 95
-61 95 -11 0 -16 -21 -20 -82 -13 -171 -6 -165 -60 -50 -27 56 -55 102 -63
102 -7 0 -13 -2 -13 -4 0 -2 25 -56 55 -120 43 -92 58 -116 75 -116 17 0 20 7
21 53 1 28 4 77 8 107 l7 55 47 -92 c36 -70 52 -93 67 -93 18 0 20 7 20 89 0
48 3 109 6 135 6 38 4 46 -10 46 -14 0 -16 -15 -16 -110z"/>
<path d="M2421 4014 c-31 -39 -29 -117 4 -149 30 -31 83 -33 116 -6 32 26 19
36 -19 14 -25 -14 -34 -15 -56 -5 -26 11 -48 49 -39 65 2 4 36 7 74 7 l71 0
-7 33 c-11 49 -32 67 -81 67 -34 0 -47 -5 -63 -26z m109 -13 c18 -35 12 -41
-50 -41 -62 0 -68 8 -37 48 15 20 75 15 87 -7z"/>
<path d="M2950 3908 c-25 -61 -46 -114 -48 -118 -4 -10 104 -50 134 -50 43 0
84 29 105 73 38 85 18 142 -65 181 -30 14 -61 26 -68 26 -7 0 -33 -50 -58
-112z m107 71 c73 -27 91 -84 53 -160 -26 -49 -61 -65 -110 -50 -68 21 -68 20
-25 125 21 53 42 96 46 96 4 0 20 -5 36 -11z"/>
<path d="M1753 3928 c34 -86 113 -238 123 -238 18 0 18 4 -6 50 -23 46 -19 48
41 20 45 -20 79 -26 79 -12 0 4 -24 17 -53 28 -57 24 -60 34 -42 113 13 57
-13 27 -31 -35 -8 -30 -19 -52 -23 -50 -4 3 -20 35 -35 71 -17 39 -34 65 -43
65 -8 0 -13 -6 -10 -12z"/>
<path d="M1684 3810 c-28 -11 -64 -58 -64 -82 0 -37 33 -90 66 -105 37 -18 75
-12 104 17 21 21 28 70 10 70 -5 0 -10 -8 -10 -18 0 -38 -51 -63 -95 -46 -20
8 -45 56 -45 87 0 33 33 61 64 55 15 -3 27 0 30 8 3 8 1 14 -3 14 -5 0 -15 2
-23 4 -7 3 -23 1 -34 -4z"/>
<path d="M3190 3790 c-34 -36 -45 -76 -31 -113 18 -46 107 -75 119 -39 3 9 -3
11 -20 7 -48 -12 -96 52 -69 93 6 11 21 5 66 -24 55 -35 59 -36 72 -18 22 31
16 80 -13 103 -40 31 -90 28 -124 -9z m112 -7 c19 -17 23 -40 9 -61 -8 -13
-29 -3 -100 45 -2 1 2 9 9 18 16 20 59 19 82 -2z"/>
<path d="M3372 3646 c-18 -50 -32 -96 -32 -102 0 -27 35 -22 103 16 97 54 101
56 93 68 -4 7 -36 -6 -84 -33 -42 -24 -78 -42 -80 -40 -2 2 10 41 27 88 22 62
27 87 18 90 -8 3 -24 -28 -45 -87z"/>
<path d="M1477 3652 c-26 -27 -37 -72 -17 -72 6 0 10 7 10 15 0 24 46 66 64
59 23 -9 20 -35 -9 -74 -31 -42 -31 -60 0 -90 22 -20 27 -21 54 -10 29 12 44
33 38 55 -1 5 11 12 27 15 16 3 31 11 34 19 3 9 0 12 -10 8 -10 -3 -35 14 -69
49 -61 62 -83 66 -122 26z m133 -98 c0 -30 -27 -56 -54 -52 -29 4 -32 41 -6
79 21 29 23 29 41 13 10 -9 19 -27 19 -40z"/>
<path d="M1365 3540 c-17 -18 -20 -19 -36 -4 -24 21 -37 -1 -14 -26 11 -12 13
-20 5 -25 -5 -3 -8 -11 -4 -16 4 -6 11 -6 20 2 11 9 24 1 66 -35 64 -56 100
-61 123 -16 18 36 2 41 -24 9 -20 -25 -29 -22 -90 33 -45 42 -48 50 -26 68 16
14 20 30 7 30 -5 0 -17 -9 -27 -20z"/>
<path d="M3515 3528 c-59 -46 -62 -115 -8 -158 30 -24 63 -26 63 -5 0 9 -9 15
-24 15 -26 0 -56 33 -56 60 0 9 7 25 15 36 15 18 17 17 63 -34 l48 -53 20 23
c31 34 36 56 19 88 -28 54 -91 67 -140 28z m103 -14 c22 -15 27 -38 16 -68 -9
-25 -26 -18 -63 26 -28 32 -32 41 -20 49 21 13 42 11 67 -7z"/>
<path d="M1193 3428 c-49 -54 -54 -88 -17 -124 29 -30 64 -27 104 10 40 38 67
48 90 36 45 -24 5 -120 -50 -120 -13 0 -20 -5 -17 -12 11 -33 76 2 103 54 19
37 18 64 -6 88 -31 31 -76 26 -126 -15 -23 -19 -49 -35 -56 -35 -21 0 -38 21
-38 46 0 21 44 74 61 74 5 0 9 5 9 10 0 18 -36 10 -57 -12z"/>
<path d="M3687 3378 c-101 -72 -117 -90 -101 -115 13 -21 28 -16 29 9 0 17 24
40 94 89 86 61 105 80 84 86 -4 1 -52 -30 -106 -69z"/>
<path d="M3702 3273 c-38 -19 -66 -65 -58 -97 11 -46 45 -76 84 -76 42 0 95
29 112 61 17 31 4 85 -27 109 -31 24 -66 25 -111 3z m109 -35 c18 -34 6 -71
-30 -95 -42 -28 -65 -29 -92 -2 -14 14 -19 30 -17 52 2 26 11 36 46 54 47 23
77 21 93 -9z"/>
<path d="M1020 3151 c0 -4 54 -32 120 -61 117 -51 121 -52 140 -35 11 10 20
22 20 27 0 13 -28 9 -33 -4 -2 -9 -36 1 -113 35 -110 47 -134 54 -134 38z"/>
<path d="M3771 3049 c-63 -21 -119 -43 -124 -48 -17 -17 13 -21 49 -6 49 20
49 20 49 -25 0 -75 66 -104 148 -65 62 29 70 100 17 138 -13 9 -17 17 -11 22
15 9 14 25 -1 24 -7 0 -64 -18 -127 -40z m112 -10 c28 -15 37 -28 37 -56 0
-42 -71 -84 -119 -68 -10 3 -24 19 -31 35 -10 25 -10 34 4 55 13 20 28 28 84
44 2 1 13 -4 25 -10z"/>
<path d="M980 3045 c0 -15 0 -15 132 -61 114 -40 124 -41 138 -13 15 27 7 34
-18 18 -17 -11 -37 -6 -136 29 -82 29 -116 37 -116 27z"/>
<path d="M1020 2918 c0 -10 20 -19 58 -27 77 -17 102 -34 102 -70 0 -47 -20
-55 -97 -40 -83 17 -85 17 -90 3 -6 -17 152 -47 177 -34 26 14 36 56 22 92 -9
24 -8 28 5 26 9 -2 18 2 20 7 2 6 -34 19 -84 29 -47 10 -92 20 -100 23 -7 3
-13 -1 -13 -9z"/>
<path d="M3867 2850 c-59 -18 -82 -57 -66 -114 5 -20 19 -41 30 -47 30 -15 36
-2 11 21 -22 20 -29 64 -14 86 4 6 17 16 29 22 20 11 22 9 32 -39 6 -27 11
-59 11 -69 0 -29 45 -26 75 5 67 66 -12 165 -108 135z m93 -40 c24 -24 26 -53
4 -74 -25 -26 -41 -19 -48 22 -4 20 -9 45 -12 55 -7 24 30 23 56 -3z"/>
<path d="M916 2698 c-3 -13 -6 -46 -6 -75 l0 -52 53 -5 c170 -18 207 -18 207
-2 0 11 -14 16 -57 18 l-58 3 3 58 c5 74 -13 75 -23 1 l-7 -55 -46 3 -47 3 3
63 c3 61 -10 84 -22 40z"/>
<path d="M3883 2633 c-44 -3 -63 -8 -63 -17 0 -10 19 -13 74 -12 82 1 99 -7
99 -48 0 -15 5 -26 13 -26 19 0 18 40 -3 62 -9 11 -11 18 -5 18 7 0 12 7 12
15 0 11 -9 14 -32 13 -18 -1 -61 -3 -95 -5z"/>
<path d="M1145 2471 c-8 -15 3 -31 21 -31 9 0 14 7 12 17 -4 20 -24 28 -33 14z"/>
<path d="M3837 2473 c-4 -3 -7 -12 -7 -20 0 -15 26 -18 34 -4 7 11 -18 33 -27
24z"/>
<path d="M980 2378 c0 -12 7 -30 17 -40 9 -11 11 -18 5 -18 -7 0 -12 -7 -12
-16 0 -14 8 -16 53 -10 28 3 71 6 95 6 29 0 42 4 42 14 0 10 -17 13 -74 12
-82 -1 -98 7 -98 48 0 15 -6 26 -14 26 -8 0 -14 -10 -14 -22z"/>
<path d="M3830 2366 c0 -11 14 -16 58 -18 l57 -3 -3 -57 c-5 -75 13 -76 23 -2
l7 55 46 -3 47 -3 -3 -62 c-1 -35 1 -63 6 -63 14 0 22 37 22 97 l0 52 -52 5
c-171 18 -208 18 -208 2z"/>
<path d="M1140 2244 c0 -3 9 -17 20 -31 25 -32 26 -65 2 -86 -33 -30 -49 -21
-56 33 -4 28 -9 57 -12 65 -8 21 -37 19 -68 -6 -34 -27 -35 -77 -2 -116 20
-24 32 -28 71 -27 67 1 99 28 103 87 2 36 -2 51 -17 66 -20 20 -41 28 -41 15z
m-56 -71 c10 -61 8 -73 -13 -73 -42 0 -68 79 -33 99 30 18 39 12 46 -26z"/>
<path d="M3821 2172 c-24 -19 -32 -61 -17 -95 6 -13 5 -16 -8 -11 -10 4 -16 1
-16 -8 0 -11 26 -20 88 -33 110 -22 104 -22 109 -9 2 6 -21 16 -54 23 -82 18
-103 34 -103 76 0 28 5 36 23 40 20 5 86 -5 140 -21 10 -3 17 0 17 9 0 9 -21
18 -57 26 -32 7 -67 15 -79 17 -11 3 -31 -3 -43 -14z"/>
<path d="M1103 2023 c-58 -29 -67 -107 -16 -141 21 -13 22 -17 10 -21 -9 -4
-13 -11 -9 -17 10 -16 262 73 262 92 0 11 -7 10 -41 -1 -55 -20 -62 -19 -56 6
7 28 -11 77 -33 89 -27 14 -80 11 -117 -7z m105 -19 c31 -21 31 -78 0 -98 -62
-40 -128 -23 -128 32 0 36 9 48 50 66 44 19 51 19 78 0z"/>
<path d="M3752 1968 c-12 -12 -17 -38 -7 -38 3 0 14 5 24 12 15 9 39 4 129
-28 61 -21 114 -35 118 -31 12 11 2 16 -116 58 -122 43 -131 44 -148 27z"/>
<path d="M3710 1865 c-6 -8 -9 -19 -5 -25 5 -8 11 -6 19 5 11 16 22 13 117
-28 120 -52 130 -56 135 -42 5 12 -205 105 -235 105 -10 0 -24 -7 -31 -15z"/>
<path d="M1199 1807 c-80 -54 -54 -167 39 -167 65 0 112 42 112 100 0 80 -80
115 -151 67z m117 -32 c29 -45 -1 -93 -69 -111 -20 -4 -32 0 -51 20 -33 33
-33 51 3 87 39 39 93 41 117 4z"/>
<path d="M3655 1720 c-61 -25 -94 -111 -56 -149 32 -32 76 -27 127 14 23 19
49 35 56 35 21 0 38 -21 38 -46 0 -21 -44 -74 -61 -74 -5 0 -9 -4 -9 -10 0
-21 39 -9 64 21 32 38 41 71 26 99 -23 43 -86 46 -120 5 -25 -30 -68 -47 -90
-35 -45 24 -4 120 50 120 12 0 20 5 18 12 -6 16 -19 18 -43 8z"/>
<path d="M1389 1685 c-1 -5 -1 -18 0 -27 1 -10 -34 -42 -99 -88 -66 -47 -98
-76 -92 -82 12 -12 215 130 220 153 1 8 -4 23 -12 34 -9 11 -16 16 -17 10z"/>
<path d="M1425 1560 c3 -5 15 -10 25 -10 19 0 60 -44 60 -64 0 -6 -7 -22 -16
-34 l-16 -23 -49 53 -49 53 -25 -28 c-31 -34 -32 -56 -4 -91 44 -55 110 -51
157 9 45 58 10 145 -58 145 -18 0 -29 -4 -25 -10z m-1 -102 c37 -43 35 -58 -8
-58 -41 0 -66 43 -50 84 9 24 19 20 58 -26z"/>
<path d="M3480 1520 c-21 -21 -26 -40 -11 -40 5 0 14 7 21 15 20 24 42 17 95
-29 l50 -44 -23 -24 c-29 -32 -16 -45 15 -16 20 18 27 20 42 11 26 -16 35 -4
15 19 -13 14 -14 21 -5 32 8 9 8 16 2 20 -5 4 -12 2 -16 -4 -10 -16 -18 -12
-74 35 -58 50 -81 55 -111 25z"/>
<path d="M3395 1435 c-14 -13 -25 -33 -25 -44 0 -14 -5 -18 -18 -14 -10 2 -25
-3 -33 -13 -13 -16 -12 -17 8 -12 17 5 32 -6 71 -48 31 -34 58 -54 72 -54 27
0 80 52 80 79 0 29 -17 26 -24 -4 -4 -14 -17 -32 -31 -41 -45 -29 -60 8 -25
61 27 40 26 80 -2 99 -31 22 -45 20 -73 -9z m65 -20 c14 -16 8 -40 -20 -75
-19 -25 -19 -25 -34 -5 -41 53 11 131 54 80z"/>
<path d="M1547 1366 c-90 -50 -110 -66 -83 -66 10 0 52 18 92 41 41 22 74 38
74 35 0 -2 -14 -42 -30 -87 -21 -55 -27 -86 -21 -92 11 -11 17 1 57 117 18 52
21 72 13 83 -15 18 -13 18 -102 -31z"/>
<path d="M3227 1304 c-39 -21 -63 -84 -32 -84 8 0 15 9 15 19 0 28 27 51 60
51 34 0 80 -49 80 -86 0 -33 -34 -64 -70 -64 -34 0 -40 -15 -10 -25 27 -9 81
24 98 58 18 37 1 88 -39 122 -35 28 -62 31 -102 9z"/>
<path d="M1720 1301 c-13 -9 -12 -11 1 -16 9 -3 20 -5 25 -4 20 4 35 -2 54
-21 21 -21 25 -46 11 -69 -9 -14 -19 -10 -108 47 -21 13 -23 12 -38 -20 -22
-44 -7 -82 39 -105 30 -14 39 -14 66 -3 66 27 93 125 47 168 -27 25 -76 37
-97 23z m45 -127 c20 -13 23 -19 14 -30 -28 -34 -99 -8 -99 35 0 37 9 44 37
26 13 -8 34 -22 48 -31z"/>
<path d="M3110 1230 c0 -6 7 -25 16 -41 8 -17 13 -33 10 -36 -3 -3 -28 4 -55
16 -54 23 -71 26 -71 12 0 -5 25 -19 55 -32 30 -12 55 -28 55 -34 0 -7 -6 -33
-14 -59 -22 -71 5 -53 28 20 l19 59 36 -75 c20 -41 37 -77 39 -79 1 -3 7 0 12
5 11 11 -103 254 -119 254 -6 0 -11 -5 -11 -10z"/>
<path d="M1902 1174 c-32 -22 -62 -87 -62 -133 0 -52 28 -83 102 -115 l56 -25
50 124 50 123 -55 21 c-65 25 -110 27 -141 5z m134 -26 c16 -8 23 -17 19 -27
-38 -104 -72 -181 -79 -181 -5 0 -29 9 -52 21 -54 26 -66 57 -47 121 24 82 76
104 159 66z"/>
<path d="M2826 1069 c-3 -34 -6 -82 -6 -105 0 -24 -4 -44 -8 -44 -4 0 -28 41
-52 90 -52 105 -71 114 -82 35 -3 -28 -7 -89 -7 -137 -1 -74 1 -86 14 -82 12
5 15 28 15 117 0 70 4 107 9 102 6 -6 31 -51 58 -101 54 -102 72 -110 74 -31
1 29 4 79 8 112 l7 60 48 -100 c54 -113 51 -109 65 -101 16 10 -95 240 -117
244 -16 3 -20 -6 -26 -59z"/>
<path d="M2255 1098 c-30 -17 -43 -39 -50 -81 -13 -75 42 -135 101 -108 36 16
36 16 32 -39 -1 -27 1 -51 7 -52 6 -2 19 57 30 135 16 103 18 137 9 137 -7 0
-15 -6 -17 -12 -4 -9 -8 -10 -14 -2 -11 15 -48 34 -65 34 -7 0 -22 -6 -33 -12z
m91 -43 c18 -28 14 -78 -10 -110 -18 -25 -74 -24 -93 1 -17 22 -12 96 7 119
21 25 77 19 96 -10z"/>
<path d="M2455 1070 c-25 -28 -14 -34 24 -13 28 16 33 17 58 3 18 -10 29 -25
31 -43 l3 -27 -70 0 c-65 0 -71 -2 -71 -21 0 -23 18 -60 34 -71 6 -4 30 -8 53
-8 34 0 46 5 63 28 30 37 24 126 -10 154 -31 25 -92 24 -115 -2z m115 -114 c0
-23 -29 -46 -59 -46 -31 0 -51 16 -51 42 0 15 9 18 55 18 41 0 55 -4 55 -14z"/>
</g>
</svg>
