<?xml version="1.0" encoding="UTF-8"?>
<!DOCTYPE svg PUBLIC "-//W3C//DTD SVG 1.1//EN" "http://www.w3.org/Graphics/SVG/1.1/DTD/svg11.dtd">
<svg xmlns="http://www.w3.org/2000/svg" version="1.1" width="608px" height="410px" style="shape-rendering:geometricPrecision; text-rendering:geometricPrecision; image-rendering:optimizeQuality; fill-rule:evenodd; clip-rule:evenodd" xmlns:xlink="http://www.w3.org/1999/xlink">
<g><path style="opacity:1" fill="#010101" d="M 481.5,43.5 C 484.909,44.9034 488.575,45.5701 492.5,45.5C 517.908,50.9128 543.575,55.5795 569.5,59.5C 569.833,59.5 570.167,59.5 570.5,59.5C 570.5,156.5 570.5,253.5 570.5,350.5C 548.423,353.735 526.423,357.402 504.5,361.5C 503.5,329.507 503.167,297.507 503.5,265.5C 503.5,250.5 503.5,235.5 503.5,220.5C 500.287,220.19 497.287,220.523 494.5,221.5C 478.308,221.848 462.308,222.848 446.5,224.5C 435.98,224.628 425.647,225.294 415.5,226.5C 407.821,226.596 400.154,226.93 392.5,227.5C 385.515,228.089 378.515,228.422 371.5,228.5C 371.168,260.338 371.502,292.004 372.5,323.5C 373.458,344.665 373.458,365.665 372.5,386.5C 363.59,387.538 354.923,389.204 346.5,391.5C 340.905,391.754 335.572,392.754 330.5,394.5C 324.905,394.754 319.572,395.754 314.5,397.5C 311.455,397.508 308.455,397.841 305.5,398.5C 305.5,393.5 305.5,388.5 305.5,383.5C 305.5,313.167 305.5,242.833 305.5,172.5C 306.499,119.336 306.832,66.0026 306.5,12.5C 364.814,22.9629 423.147,33.2962 481.5,43.5 Z M 379.5,72.5 C 390.598,75.1286 401.931,77.1286 413.5,78.5C 416.589,79.7846 419.922,80.4512 423.5,80.5C 431.36,82.4709 439.36,83.8042 447.5,84.5C 450.909,85.9034 454.575,86.5701 458.5,86.5C 472.929,89.7836 487.596,92.4503 502.5,94.5C 502.5,96.5 502.5,98.5 502.5,100.5C 501.502,124.328 501.169,148.328 501.5,172.5C 458.469,170.572 415.469,168.239 372.5,165.5C 372.333,134.165 372.5,102.832 373,71.5C 375.041,72.4231 377.208,72.7564 379.5,72.5 Z"/></g>
<g><path style="opacity:1" fill="#030303" d="M 302.5,12.5 C 303.496,28.6581 303.83,44.9915 303.5,61.5C 267.647,66.4781 231.981,71.8114 196.5,77.5C 194.393,78.4682 192.059,78.8016 189.5,78.5C 175.595,79.7717 161.928,81.7717 148.5,84.5C 139.39,86.4681 130.057,87.8014 120.5,88.5C 115.546,88.565 110.713,89.2317 106,90.5C 105.5,102.162 105.333,113.829 105.5,125.5C 104.504,140.658 104.17,155.991 104.5,171.5C 108.042,171.813 111.375,171.479 114.5,170.5C 115.5,170.5 116.5,170.5 117.5,170.5C 134.508,170.5 151.508,170.166 168.5,169.5C 198.334,168.751 228.001,167.751 257.5,166.5C 272.841,166.442 288.174,166.109 303.5,165.5C 303.5,242.833 303.5,320.167 303.5,397.5C 299.5,397.167 295.5,396.833 291.5,396.5C 206.928,381.45 122.594,365.784 38.5,349.5C 38.3334,333.497 38.5001,317.497 39,301.5C 45.3599,303.198 51.8599,304.198 58.5,304.5C 64.5888,306.236 70.9221,307.236 77.5,307.5C 89.5859,310.236 101.919,312.236 114.5,313.5C 124.588,315.903 134.921,317.57 145.5,318.5C 157.587,321.236 169.921,323.236 182.5,324.5C 200.601,328.136 218.934,331.136 237.5,333.5C 237.5,305.5 237.5,277.5 237.5,249.5C 237.5,241.833 237.5,234.167 237.5,226.5C 233.833,226.5 230.167,226.5 226.5,226.5C 197.687,224.477 168.687,223.144 139.5,222.5C 123.791,222.407 108.125,221.74 92.5,220.5C 80.0251,219.109 67.3584,218.442 54.5,218.5C 49.6946,217.513 44.6946,217.179 39.5,217.5C 39.5,164.833 39.5,112.167 39.5,59.5C 126.911,43.0967 214.578,27.43 302.5,12.5 Z"/></g>
<g><path style="opacity:0.298" fill="#ababab" d="M 481.5,43.5 C 423.147,33.2962 364.814,22.9629 306.5,12.5C 306.832,66.0026 306.499,119.336 305.5,172.5C 305.5,118.833 305.5,65.1667 305.5,11.5C 364.443,21.3221 423.11,31.9887 481.5,43.5 Z"/></g>
<g><path style="opacity:0.282" fill="#ababab" d="M 481.5,43.5 C 485.425,43.4299 489.091,44.0966 492.5,45.5C 488.575,45.5701 484.909,44.9034 481.5,43.5 Z"/></g>
<g><path style="opacity:0.329" fill="#a2a2a2" d="M 492.5,45.5 C 518.424,49.4299 544.09,54.0966 569.5,59.5C 543.575,55.5795 517.908,50.9128 492.5,45.5 Z"/></g>
<g><path style="opacity:0.621" fill="#666666" d="M 39.5,59.5 C 39.5,112.167 39.5,164.833 39.5,217.5C 44.6946,217.179 49.6946,217.513 54.5,218.5C 53.8333,218.5 53.1667,218.5 52.5,218.5C 47.8333,218.5 43.1667,218.5 38.5,218.5C 38.1677,165.331 38.5011,112.331 39.5,59.5 Z"/></g>
<g><path style="opacity:0.279" fill="#b8b8b8" d="M 379.5,72.5 C 377.208,72.7564 375.041,72.4231 373,71.5C 372.5,102.832 372.333,134.165 372.5,165.5C 415.469,168.239 458.469,170.572 501.5,172.5C 501.169,148.328 501.502,124.328 502.5,100.5C 502.5,124.833 502.5,149.167 502.5,173.5C 458.785,171.794 415.118,169.46 371.5,166.5C 371.5,134.5 371.5,102.5 371.5,70.5C 374.373,70.8023 377.039,71.469 379.5,72.5 Z"/></g>
<g><path style="opacity:0.02" fill="#b5b5b5" d="M 302.5,12.5 C 302.56,11.9569 302.893,11.6236 303.5,11.5C 304.499,28.4869 304.833,45.4869 304.5,62.5C 268.552,67.8736 232.552,72.8736 196.5,77.5C 231.981,71.8114 267.647,66.4781 303.5,61.5C 303.83,44.9915 303.496,28.6581 302.5,12.5 Z"/></g>
<g><path style="opacity:0.557" fill="#a8a8a8" d="M 413.5,78.5 C 417.122,78.322 420.456,78.9886 423.5,80.5C 419.922,80.4512 416.589,79.7846 413.5,78.5 Z"/></g>
<g><path style="opacity:0.016" fill="#c0c0c0" d="M 189.5,78.5 C 176.072,81.2283 162.405,83.2283 148.5,84.5C 161.928,81.7717 175.595,79.7717 189.5,78.5 Z"/></g>
<g><path style="opacity:0.576" fill="#9f9f9f" d="M 447.5,84.5 C 451.425,84.4299 455.091,85.0966 458.5,86.5C 454.575,86.5701 450.909,85.9034 447.5,84.5 Z"/></g>
<g><path style="opacity:0.053" fill="#e8e8e8" d="M 120.5,88.5 C 116.122,89.6324 111.622,90.6324 107,91.5C 106.831,108.005 106.331,124.338 105.5,140.5C 105.5,135.5 105.5,130.5 105.5,125.5C 105.333,113.829 105.5,102.162 106,90.5C 110.713,89.2317 115.546,88.565 120.5,88.5 Z"/></g>
<g><path style="opacity:0.531" fill="#656565" d="M 105.5,125.5 C 105.5,130.5 105.5,135.5 105.5,140.5C 105.5,150.5 105.5,160.5 105.5,170.5C 108.5,170.5 111.5,170.5 114.5,170.5C 111.375,171.479 108.042,171.813 104.5,171.5C 104.17,155.991 104.504,140.658 105.5,125.5 Z"/></g>
<g><path style="opacity:0.573" fill="#a6a6a6" d="M 303.5,165.5 C 288.174,166.109 272.841,166.442 257.5,166.5C 255.5,166.5 253.5,166.5 251.5,166.5C 265.666,165.659 279.999,164.992 294.5,164.5C 297.686,164.502 300.686,164.835 303.5,165.5 Z"/></g>
<g><path style="opacity:0.043" fill="#efefef" d="M 303.5,165.5 C 304.167,238.167 304.833,310.833 305.5,383.5C 305.5,388.5 305.5,393.5 305.5,398.5C 304.833,398.5 304.167,398.5 303.5,398.5C 303.5,398.167 303.5,397.833 303.5,397.5C 303.5,320.167 303.5,242.833 303.5,165.5 Z"/></g>
<g><path style="opacity:0.635" fill="#848484" d="M 251.5,166.5 C 253.5,166.5 255.5,166.5 257.5,166.5C 228.001,167.751 198.334,168.751 168.5,169.5C 168.5,169.167 168.5,168.833 168.5,168.5C 196.157,167.47 223.823,166.803 251.5,166.5 Z"/></g>
<g><path style="opacity:0.733" fill="#a7a7a7" d="M 168.5,168.5 C 168.5,168.833 168.5,169.167 168.5,169.5C 151.508,170.166 134.508,170.5 117.5,170.5C 134.328,169.473 151.328,168.807 168.5,168.5 Z"/></g>
<g><path style="opacity:0.557" fill="#a2a2a2" d="M 52.5,218.5 C 53.1667,218.5 53.8333,218.5 54.5,218.5C 67.3584,218.442 80.0251,219.109 92.5,220.5C 78.9823,220.428 65.6489,219.761 52.5,218.5 Z"/></g>
<g><path style="opacity:0.149" fill="#b0b0b0" d="M 494.5,221.5 C 494.833,221.5 495.167,221.5 495.5,221.5C 480.026,223.153 464.359,224.153 448.5,224.5C 447.833,224.5 447.167,224.5 446.5,224.5C 462.308,222.848 478.308,221.848 494.5,221.5 Z"/></g>
<g><path style="opacity:0.227" fill="#adadad" d="M 139.5,222.5 C 168.687,223.144 197.687,224.477 226.5,226.5C 226.167,226.5 225.833,226.5 225.5,226.5C 196.647,225.825 167.981,224.492 139.5,222.5 Z"/></g>
<g><path style="opacity:0.057" fill="#b8b8b8" d="M 446.5,224.5 C 447.167,224.5 447.833,224.5 448.5,224.5C 438.694,225.82 428.694,226.487 418.5,226.5C 417.5,226.5 416.5,226.5 415.5,226.5C 425.647,225.294 435.98,224.628 446.5,224.5 Z"/></g>
<g><path style="opacity:0.057" fill="#cacaca" d="M 415.5,226.5 C 416.5,226.5 417.5,226.5 418.5,226.5C 410.014,227.574 401.347,228.241 392.5,228.5C 392.5,228.167 392.5,227.833 392.5,227.5C 400.154,226.93 407.821,226.596 415.5,226.5 Z"/></g>
<g><path style="opacity:0.205" fill="#cfcfcf" d="M 225.5,226.5 C 225.833,226.5 226.167,226.5 226.5,226.5C 230.167,226.5 233.833,226.5 237.5,226.5C 237.5,234.167 237.5,241.833 237.5,249.5C 237.167,249.5 236.833,249.5 236.5,249.5C 236.5,242.167 236.5,234.833 236.5,227.5C 232.629,227.815 228.962,227.482 225.5,226.5 Z"/></g>
<g><path style="opacity:0.636" fill="#6c6c6c" d="M 494.5,221.5 C 497.287,220.523 500.287,220.19 503.5,220.5C 503.5,235.5 503.5,250.5 503.5,265.5C 503.167,265.5 502.833,265.5 502.5,265.5C 502.435,250.875 502.435,236.375 502.5,222C 500.19,221.503 497.857,221.337 495.5,221.5C 495.167,221.5 494.833,221.5 494.5,221.5 Z"/></g>
<g><path style="opacity:0.431" fill="#8e8e8e" d="M 392.5,227.5 C 392.5,227.833 392.5,228.167 392.5,228.5C 385.863,229.276 379.196,229.609 372.5,229.5C 372.5,260.833 372.5,292.167 372.5,323.5C 371.502,292.004 371.168,260.338 371.5,228.5C 378.515,228.422 385.515,228.089 392.5,227.5 Z"/></g>
<g><path style="opacity:0.273" fill="#b5b5b5" d="M 58.5,304.5 C 51.8599,304.198 45.3599,303.198 39,301.5C 38.5001,317.497 38.3334,333.497 38.5,349.5C 37.5036,333.342 37.1702,317.009 37.5,300.5C 44.6827,301.528 51.6827,302.861 58.5,304.5 Z"/></g>
<g><path style="opacity:0.306" fill="#a9a9a9" d="M 58.5,304.5 C 65.0779,304.764 71.4112,305.764 77.5,307.5C 70.9221,307.236 64.5888,306.236 58.5,304.5 Z"/></g>
<g><path style="opacity:0.337" fill="#a6a6a6" d="M 77.5,307.5 C 90.0812,308.764 102.414,310.764 114.5,313.5C 101.919,312.236 89.5859,310.236 77.5,307.5 Z"/></g>
<g><path style="opacity:0.341" fill="#a5a5a5" d="M 114.5,313.5 C 125.079,314.43 135.412,316.097 145.5,318.5C 134.921,317.57 124.588,315.903 114.5,313.5 Z"/></g>
<g><path style="opacity:0.341" fill="#a3a3a3" d="M 145.5,318.5 C 158.079,319.764 170.413,321.764 182.5,324.5C 169.921,323.236 157.587,321.236 145.5,318.5 Z"/></g>
<g><path style="opacity:0.365" fill="#8d8d8d" d="M 236.5,249.5 C 236.833,249.5 237.167,249.5 237.5,249.5C 237.5,277.5 237.5,305.5 237.5,333.5C 218.934,331.136 200.601,328.136 182.5,324.5C 200.539,326.887 218.539,329.553 236.5,332.5C 236.5,304.833 236.5,277.167 236.5,249.5 Z"/></g>
<g><path style="opacity:0.302" fill="#b9b9b9" d="M 570.5,59.5 C 571.499,156.665 571.833,253.999 571.5,351.5C 548.483,355.058 525.483,358.725 502.5,362.5C 502.5,330.167 502.5,297.833 502.5,265.5C 502.833,265.5 503.167,265.5 503.5,265.5C 503.167,297.507 503.5,329.507 504.5,361.5C 526.423,357.402 548.423,353.735 570.5,350.5C 570.5,253.5 570.5,156.5 570.5,59.5 Z"/></g>
<g><path style="opacity:0.251" fill="#afafaf" d="M 372.5,386.5 C 364.117,389.011 355.451,390.678 346.5,391.5C 354.923,389.204 363.59,387.538 372.5,386.5 Z"/></g>
<g><path style="opacity:0.302" fill="#acacac" d="M 346.5,391.5 C 341.428,393.246 336.095,394.246 330.5,394.5C 335.572,392.754 340.905,391.754 346.5,391.5 Z"/></g>
<g><path style="opacity:0.298" fill="#adadad" d="M 330.5,394.5 C 325.428,396.246 320.095,397.246 314.5,397.5C 319.572,395.754 324.905,394.754 330.5,394.5 Z"/></g>
<g><path style="opacity:0.549" fill="#a0a0a0" d="M 291.5,396.5 C 295.5,396.833 299.5,397.167 303.5,397.5C 303.5,397.833 303.5,398.167 303.5,398.5C 303.565,398.938 303.399,399.272 303,399.5C 299.035,398.653 295.202,397.653 291.5,396.5 Z"/></g>
<g><path style="opacity:0.024" fill="#c8c8c8" d="M 314.5,397.5 C 312.362,398.404 310.029,399.071 307.5,399.5C 306.584,399.457 305.917,399.124 305.5,398.5C 308.455,397.841 311.455,397.508 314.5,397.5 Z"/></g>
</svg>
